<svg width="212" height="36" viewBox="0 0 212 36" fill="none" xmlns="http://www.w3.org/2000/svg">
<g clip-path="url(#clip0)">
<path d="M46.8005 17.4662C46.8005 18.5294 46.4208 19.4407 45.7373 20.2001C45.0539 20.9595 43.9907 21.2632 42.9275 21.2632C41.8644 21.2632 40.9531 20.8835 40.2696 20.2001C39.5861 19.4407 39.2824 18.5294 39.2824 17.4662C39.2824 16.403 39.6621 15.4917 40.2696 14.8083C40.9531 14.0489 41.8644 13.6692 42.9275 13.6692C43.9907 13.6692 45.0539 14.0489 45.7373 14.8083C46.4208 15.4917 46.8005 16.3271 46.8005 17.4662ZM46.7246 12.3782C45.5855 11.3909 44.2185 10.9353 42.6238 10.9353C40.8771 10.9353 39.1305 11.5428 37.9914 12.7579C36.7763 13.9729 36.2448 15.5677 36.2448 17.3903C36.2448 19.2888 36.8523 20.8835 37.9914 22.0986C39.1305 23.3896 40.8012 23.9971 42.6238 23.9971C44.2945 23.9971 45.4336 23.5415 46.7246 22.5542V23.6933H49.5344V11.1631H46.7246V12.3782Z" fill="black"/>
<path fill-rule="evenodd" clip-rule="evenodd" d="M52.2682 23.8452C53.787 23.8452 54.9262 23.2377 55.6856 21.9467C55.9893 21.491 56.2931 20.7316 56.445 20.276C56.6728 19.7444 56.8247 18.6812 56.9766 18.2256C57.0525 17.9977 57.1284 17.618 57.2044 17.0865L57.3563 16.0233C57.3563 15.7955 57.4322 15.4158 57.5081 14.8082L57.66 13.7451H60.4698V23.5414H63.4315V11.1631H55.078L54.9262 12.1503C54.6983 14.5045 54.3946 16.403 54.1668 17.694C53.9389 18.985 53.6352 19.9722 53.1036 20.6557C52.6479 21.2632 52.0404 21.567 51.281 21.567L51.4329 23.7692C51.8126 23.8452 52.0404 23.8452 52.2682 23.8452Z" fill="black"/>
<path d="M90.1626 13.5174C93.0484 13.5174 94.7191 15.0362 94.7191 17.4663C94.7191 19.8964 92.9724 21.4152 90.1626 21.4152V13.5174ZM82.7964 17.4663C82.7964 15.0362 84.4671 13.5174 87.3528 13.5174V21.4152C84.4671 21.3393 82.7964 19.8964 82.7964 17.4663ZM97.6048 17.4663C97.6048 15.4918 96.9214 13.8971 95.5544 12.758C94.1875 11.5429 92.3649 10.9354 90.1626 10.8595V7.51807H87.3528V10.8595C85.1506 10.9354 83.252 11.5429 81.961 12.758C80.5941 13.8971 79.9106 15.4918 79.9106 17.4663C79.9106 19.4407 80.5941 20.9596 81.961 22.0987C83.328 23.2378 85.1506 23.9212 87.3528 23.9972V27.3386H90.1626V23.9972C92.4409 23.9212 94.2634 23.3137 95.5544 22.1746C96.9214 20.9596 97.6048 19.3648 97.6048 17.4663Z" fill="black"/>
<path d="M67.836 23.6933L74.8985 15.8714V23.6933H77.7842V11.1631H75.8857L68.8992 19.0609V11.1631H65.9375V23.6933H67.836Z" fill="black"/>
<path d="M113.476 13.2135C112.337 11.8466 110.894 11.0872 109.072 11.0872C107.325 11.0872 105.806 11.6947 104.667 12.9097C103.528 14.1248 102.921 15.6436 102.921 17.4662C102.921 19.2887 103.528 20.8835 104.667 22.0986C105.882 23.3136 107.325 23.9971 109.072 23.9971C110.894 23.9971 112.337 23.3136 113.476 21.9467V23.6933H115.451V11.3909H113.476V13.2135ZM113.628 17.5421C113.628 18.8331 113.249 19.8963 112.413 20.8076C111.654 21.7188 110.591 22.0986 109.3 22.0986C108.009 22.0986 106.946 21.6429 106.186 20.8076C105.427 19.8963 104.971 18.8331 104.971 17.5421C104.971 16.2511 105.351 15.188 106.186 14.2767C106.946 13.3654 108.009 12.9097 109.3 12.9097C110.591 12.9097 111.654 13.3654 112.413 14.2767C113.249 15.188 113.628 16.2511 113.628 17.5421ZM128.665 23.6933L122.741 16.5549L128.513 11.3909H125.703L120.007 16.4789V11.3909H117.957V23.6933H120.007V18.985L121.222 17.9218L125.931 23.7692H128.665V23.6933ZM138.992 13.2135C137.853 11.8466 136.41 11.0872 134.588 11.0872C132.841 11.0872 131.322 11.6947 130.183 12.9097C129.044 14.1248 128.437 15.6436 128.437 17.4662C128.437 19.2887 129.044 20.8835 130.183 22.0986C131.398 23.3136 132.841 23.9971 134.588 23.9971C136.41 23.9971 137.853 23.3136 138.992 21.9467V23.6933H140.967V11.3909H138.992V13.2135ZM139.144 17.5421C139.144 18.8331 138.765 19.8963 137.929 20.8076C137.17 21.7188 136.107 22.0986 134.816 22.0986C133.525 22.0986 132.462 21.7188 131.702 20.8076C130.943 19.8963 130.487 18.8331 130.487 17.5421C130.487 16.2511 130.867 15.188 131.702 14.2767C132.462 13.3654 133.525 12.9097 134.816 12.9097C136.107 12.9097 137.17 13.3654 137.929 14.2767C138.689 15.188 139.144 16.2511 139.144 17.5421ZM154.484 11.3909H146.511L145.903 15.188C145.447 18.4534 144.84 20.6557 144.156 21.7948H142.79V26.3512H144.764V23.6174H153.877V26.3512H155.775V21.7948H154.56V11.3909H154.484ZM148.257 13.2135H152.51V21.8707H146.359C147.042 20.5797 147.574 17.9218 148.181 14.0488L148.257 13.2135ZM169.141 17.3143C169.141 15.4158 168.609 13.897 167.47 12.7579C166.407 11.6187 164.964 11.0872 163.218 11.0872C161.395 11.0872 159.876 11.6947 158.737 12.9097C157.598 14.1248 156.99 15.6436 156.99 17.5421C156.99 20.7316 158.889 23.9971 163.521 23.9971C165.572 23.9971 167.622 23.2377 168.761 22.2504L167.926 20.6557C166.711 21.491 165.04 22.0226 163.597 22.0226C160.939 22.0226 159.496 20.5038 159.193 18.3775H169.065C169.065 17.8459 169.141 17.4662 169.141 17.3143ZM163.218 12.9097C165.268 12.9097 166.863 14.2767 166.939 16.5549H159.193C159.496 14.4285 161.091 12.9097 163.218 12.9097ZM173.318 23.6933V15.5677L178.102 21.8707H178.633L183.418 15.5677V23.6933H185.468V11.3909H184.329L178.406 19.2128L172.406 11.3909H171.267V23.6933H173.318ZM189.265 23.6933L197.163 14.5804V23.6933H199.137V11.3909H197.922L190.025 20.5038V11.3909H188.05V23.6933H189.265ZM206.504 11.3909C204.833 11.3909 203.618 11.7706 202.859 12.53C202.099 13.2894 201.644 14.2007 201.644 15.2639C201.644 16.9346 202.631 18.3775 204.529 18.909L201.112 23.6933H203.466L206.58 19.1369C207.567 19.1369 208.478 19.0609 209.238 18.909V23.6933H211.288V11.3909H206.504ZM206.656 17.3143C204.681 17.3143 203.694 16.6308 203.694 15.188C203.694 13.821 204.605 13.1376 206.504 13.1376H209.238V17.1624C208.63 17.3143 207.719 17.3143 206.656 17.3143Z" fill="black"/>
<path fill-rule="evenodd" clip-rule="evenodd" d="M16.1206 35.9201C13.6905 35.6922 11.4122 35.0088 9.28588 33.8697C5.26101 31.6674 2.14743 27.9463 0.704556 23.2379C-0.662381 18.5296 0.0210872 13.6694 2.22337 9.72044C5.10913 4.40457 10.6528 0.759409 16.5762 0H16.7281L18.2469 3.79705C18.171 3.79705 18.095 3.79705 18.095 3.79705C13.0829 4.10081 8.07083 7.06251 5.64072 11.543C3.89407 14.6566 3.43843 18.4536 4.5016 22.0988C5.56477 25.8199 8.07083 28.7057 11.1844 30.3764C12.8551 31.2877 14.6777 31.8192 16.5762 32.0471C20.753 32.4268 24.6259 31.0598 27.6636 28.6297C27.8155 28.4778 27.9673 28.4019 28.1192 28.25L29.638 32.0471C25.9169 34.8569 21.1327 36.3757 16.1206 35.9201ZM20.2214 8.88509H15.4371L9.134 24.453H13.2348L17.8672 12.3784L22.4996 24.453H26.6004L20.2214 8.88509Z" fill="#00BFBF"/>
</g>
<defs>
<clipPath id="clip0">
<rect width="212" height="36" fill="white"/>
</clipPath>
</defs>
</svg>
